Coordinates
version=1
nRows=8
nColumns=28
inDegrees=yes

Units are S.I. units (second, meters, Newtons, ...)
Angles are in degrees.

endheader
time	pelvis_tilt	pelvis_list	pelvis_rotation	pelvis_tx	pelvis_ty	pelvis_tz	hip_flexion_r	hip_adduction_r	hip_rotation_r	knee_angle_r	ankle_angle_r	subtalar_angle_r	mtp_angle_r	hip_flexion_l	hip_adduction_l	hip_rotation_l	knee_angle_l	socket_flexion	socket_adduction	socket_rotation	socket_tx	socket_ty	socket_tz	foot_flex	lumbar_extension	lumbar_bending	lumbar_rotation
      0.27083333	     -2.68479746	      4.15381257	      3.59896932	     -0.42161060	      0.98197890	      0.23912561	     18.19040196	     -7.23762021	      1.62135136	    -63.48075036	    -12.95039805	    -15.39316987	     12.38787294	     14.02292701	      8.36908082	      5.38181108	    -24.82739582	     -1.95632992	      0.00000000	      0.00000000	      0.00000000	      0.00000000	      0.00000000	      4.66847811	     -6.50857166	     -7.10741058	     -6.16413182
      0.27500000	     -2.62087796	      3.99254329	      3.61266440	     -0.41604633	      0.98295948	      0.23846929	     18.84736228	     -7.11600574	      1.49553070	    -63.39509677	    -12.30082051	    -15.72577114	     12.33519094	     13.43134814	      8.20713985	      5.43647995	    -24.54794741	     -1.97647948	      0.00000000	      0.00000000	      0.00000000	      0.00000000	      0.00000000	      4.69655711	     -6.55195679	     -6.84614131	     -6.25939956
      0.27916667	     -1.91495154	      4.10327543	      3.35555604	     -0.40949001	      0.98557206	      0.23862560	     18.60545531	     -7.07099307	      1.67772911	    -63.01410546	    -11.08684728	    -16.21925258	     10.45506026	     11.40564036	      8.14948421	      5.44246306	    -22.16164548	     -0.66423020	      0.00000000	      0.00000000	      0.00000000	      0.00000000	      0.00000000	      4.85615455	     -7.25672376	     -6.95132252	     -6.41874385
      0.28333333	     -1.88770150	      3.89544039	      3.38682073	     -0.40389744	      0.98651574	      0.23805249	     19.22853203	     -6.84317234	      1.57889010	    -62.79028208	    -10.22827476	    -16.64502253	     10.41038251	     10.85197922	      7.93263219	      5.53366766	    -21.86130695	     -0.65034326	      0.00000000	      0.00000000	      0.00000000	      0.00000000	      0.00000000	      4.92615551	     -7.24829585	     -6.66936106	     -6.53450422
      0.28750000	     -1.83478211	      3.69441798	      3.41371548	     -0.39824788	      0.98755170	      0.23754271	     19.78988902	     -6.61100105	      1.47818243	    -62.48777806	     -9.35830254	    -17.13457991	     10.30037407	     10.22454858	      7.70987955	      5.63103785	    -21.41038333	     -0.54036480	      0.00000000	      0.00000000	      0.00000000	      0.00000000	      0.00000000	      4.96440082	     -7.27117781	     -6.40086869	     -6.71002930
      0.29166667	     -1.06169988	      3.75730648	      3.13677914	     -0.39164730	      0.99012953	      0.23755431	     19.41510101	     -6.53037822	      1.62566473	    -61.92372820	     -8.63791162	    -17.67155237	      8.67175836	      8.05090570	      7.61479076	      5.64298963	    -18.79571344	      0.89753663	      0.00000000	      0.00000000	      0.00000000	      0.00000000	      0.00000000	      5.07003598	     -8.03170331	     -6.40788451	     -6.82468189
      0.29583333	     -1.05845481	      3.53130421	      3.15068891	     -0.38611332	      0.99099671	      0.23704945	     20.01281114	     -6.26177619	      1.54105337	    -61.53355626	     -7.80234074	    -18.03890937	      8.63902769	      7.53955527	      7.37119892	      5.70880690	    -18.51338821	      0.89687415	      0.00000000	      0.00000000	      0.00000000	      0.00000000	      0.00000000	      5.08383087	     -8.01104721	     -6.12272528	     -6.88850530
      0.30000000	     -1.03026487	      3.48898949	      3.19513550	     -0.38100083	      0.99166465	      0.23644289	     20.65315170	     -6.23983367	      1.46980579	    -61.17978652	     -7.67076535	    -18.10331385	      8.63116043	      7.10778414	      7.34223849	      5.72906807	    -18.47883877	      0.76549712	      0.00000000	      0.00000000	      0.00000000	      0.00000000	      0.00000000	      5.11114895	     -8.11620039	     -6.06487968	     -6.90595850
